<svg xmlns="http://www.w3.org/2000/svg" viewBox="0 0 256.60144 95.413231"><path d="M144.059 431.443c0 2.531.541 6.267 3.035 10.276 2.493 4.009 7.623 7.82 14.57 7.82v-10c-3.778 0-4.952-1.288-6.08-3.101-1.128-1.814-1.525-4.627-1.525-4.995zm.04-39.005v40.336h9.93v-40.336zm44.725 12.844c-12.021 0-21.877 9.78-21.877 21.652 0 11.947 9.856 21.655 21.952 21.655 12.02 0 22.027-9.708 22.027-21.356 0-12.32-9.632-21.951-22.102-21.951m50.475 0c-5.675 0-10.453 2.014-13.664 5.822v-4.853h-9.11v55.18h9.932v-17.696c3.808 3.36 7.616 4.854 12.693 4.854 11.947 0 20.682-9.26 20.682-21.803 0-12.47-8.661-21.504-20.533-21.504m49.281 0c-5.675 0-10.453 2.014-13.664 5.822v-4.853h-9.11v55.18h9.93v-17.696c3.808 3.36 7.616 4.854 12.694 4.854 11.946 0 20.683-9.26 20.683-21.803 0-12.47-8.66-21.504-20.533-21.504m26.506.969v22.177c0 7.02.822 10.678 3.137 14.038 2.762 3.957 7.166 6.123 12.617 6.123 5.003 0 8.065-1.271 11.873-4.93v3.959h9.184V406.25h-9.93v19.488c0 5.525-.374 8.14-1.568 9.932-1.42 2.464-4.182 3.808-7.542 3.808-2.538 0-4.48-.821-5.824-2.613-1.418-1.792-2.017-4.779-2.017-10.379v-20.236zm-126.187 8.138c6.645 0 12.021 5.601 12.021 12.545s-5.375 12.545-11.945 12.545c-6.72 0-12.022-5.6-12.022-12.693 0-6.795 5.375-12.397 11.946-12.397m49.056 0c6.72 0 11.873 5.451 11.873 12.62 0 7.018-5.152 12.47-11.722 12.47-7.02 0-12.247-5.376-12.247-12.619 0-7.093 5.227-12.47 12.096-12.47m49.28 0c6.72 0 11.872 5.451 11.872 12.62 0 7.018-5.151 12.47-11.722 12.47-7.019 0-12.246-5.376-12.246-12.619 0-7.093 5.226-12.47 12.095-12.47m74.443 23.67v9.559h9.931v-9.559z" transform="translate(-125.779 -376.611)"/></svg>
