<svg width="40" height="40" viewBox="0 0 40 40" xmlns="http://www.w3.org/2000/svg">
<path d="M18.0933 1.65631C14.6402 2.01569 11.0308 3.51569 8.35896 5.70319C7.60896 6.32819 6.17146 7.76569 5.59334 8.50006C4.85896 9.40631 4.04646 10.7032 3.46834 11.8907C-1.03166 21.0001 2.73396 32.0313 11.8902 36.5469C18.0933 39.6094 25.5308 38.9219 31.0777 34.7501C31.9215 34.1251 33.4996 32.5938 34.2496 31.7032C35.9996 29.6094 37.4058 26.7344 38.0152 24.0157C39.859 15.7188 35.7652 7.23444 28.1246 3.46881C25.0465 1.95319 21.4683 1.29694 18.0933 1.65631ZM21.6402 4.48444C24.1402 4.78131 26.4215 5.59381 28.5152 6.93756C34.3902 10.7501 37.0152 18.1407 34.8433 24.7969C34.4683 25.9219 33.7496 27.4376 33.1246 28.4219C32.484 29.4219 32.4527 29.4376 32.3277 28.8126C32.0465 27.5782 31.1715 25.7344 30.234 24.4844C28.9683 22.7969 27.1246 21.2813 25.359 20.5001C25.0777 20.3751 24.859 20.2501 24.859 20.2188C24.859 20.1876 25.0621 19.9532 25.2965 19.6876C27.3902 17.4063 27.6402 13.8282 25.9215 11.2032C25.1558 10.0313 23.8277 8.92194 22.6558 8.48444C21.5621 8.06256 21.1246 8.00006 19.8902 8.00006C18.7965 8.01569 18.6246 8.03131 17.8433 8.28131C15.5933 9.03131 13.9371 10.6719 13.2183 12.8907C12.4996 15.2657 13.0621 17.9063 14.6871 19.6876C14.9215 19.9532 15.1246 20.1876 15.1246 20.2188C15.1246 20.2501 14.9058 20.3751 14.6246 20.5001C13.3433 21.0938 11.6871 22.2813 10.734 23.3126C9.26521 24.9063 8.07771 27.0313 7.67146 28.8126C7.59334 29.0938 7.53084 29.3282 7.49959 29.3282C7.39021 29.3282 6.37459 27.6094 5.90584 26.6407C2.56209 19.7032 4.99959 11.1719 11.4996 6.95319C14.5152 4.98444 18.1871 4.09381 21.6402 4.48444ZM21.0152 10.9219C22.5465 11.3282 23.7183 12.5157 24.1246 14.0469C24.7027 16.2501 23.2965 18.5782 21.0152 19.1719C18.7965 19.7501 16.4683 18.3438 15.8746 16.0626C15.0777 13.0157 17.9683 10.1251 21.0152 10.9219ZM21.2808 22.2188C24.5933 22.6876 27.3746 24.6876 28.859 27.6251C29.4683 28.8438 29.8277 30.2188 29.859 31.4063L29.8746 32.0782L29.0308 32.6876C24.484 35.9688 18.3746 36.5157 13.3433 34.0938C12.3277 33.5938 10.8902 32.7188 10.2808 32.2032L10.0308 31.9844L10.1246 31.0782C10.4058 28.6876 11.3433 26.7032 12.984 25.0626C15.1871 22.8751 18.2965 21.8126 21.2808 22.2188Z" />
</svg>
