<svg width="40" height="40" viewBox="0 0 40 40" xmlns="http://www.w3.org/2000/svg">
<path d="M17.9999 1.67206C10.8437 2.46894 4.70305 7.51581 2.43743 14.4533C0.546803 20.2346 1.76555 26.7346 5.68743 31.5783C6.40618 32.4689 8.0468 34.0471 8.96868 34.7502C11.4687 36.6252 14.2656 37.7971 17.4062 38.2814C18.7499 38.5002 21.2968 38.5002 22.6093 38.2814C30.7812 37.0002 36.9999 30.7658 38.2812 22.6096C38.4999 21.2814 38.4999 18.7346 38.2812 17.4064C37.7968 14.2814 36.6249 11.4846 34.7499 8.96894C34.0624 8.04706 32.4687 6.40644 31.5781 5.68769C27.7499 2.60956 22.7499 1.12519 17.9999 1.67206ZM21.8593 3.04706C27.7499 3.68769 32.7343 7.17207 35.3124 12.4064C38.5937 19.1252 37.2031 27.1877 31.8749 32.3283C25.5468 38.4221 15.4999 38.6877 8.76555 32.9064C7.15618 31.5158 5.76555 29.7346 4.74993 27.7033C2.0468 22.2971 2.40618 15.6564 5.71868 10.6096C9.21868 5.26581 15.4531 2.34394 21.8593 3.04706Z" fill="white"/>
<path d="M12.9215 11C11.5778 11.2344 10.7809 12.8281 11.4059 14.0781C11.484 14.2188 12.6871 15.5156 14.0934 16.9062L16.6559 19.4688L14.0465 22.0781C11.5465 24.5938 11.4371 24.7031 11.2965 25.2344C10.7965 26.9531 12.3278 28.4531 14.0621 27.9531C14.3746 27.8594 14.8903 27.4062 17.0934 25.2031L19.7496 22.5625L22.3121 25.125C25.0153 27.8281 25.2965 28.0469 26.0778 28.0625C27.0309 28.0625 28.0153 27.3438 28.234 26.4531C28.359 25.9063 28.359 25.7812 28.1871 25.1875C28.0465 24.7188 27.8903 24.5313 25.4371 22.0781L22.8278 19.4688L25.3903 16.9062C26.7965 15.5 27.9996 14.2031 28.0934 14.0469C28.7965 12.6406 27.734 10.9531 26.1403 10.9531C25.7653 10.9531 25.4684 11.0156 25.1871 11.1563C24.9215 11.2813 23.8903 12.2344 22.2653 13.8594L19.7496 16.375L17.1871 13.8281C15.7809 12.4375 14.5309 11.2344 14.4215 11.1719C14.0778 11 13.3746 10.9219 12.9215 11Z" fill="white"/>
</svg>
