<svg width="40" height="40" viewBox="0 0 40 40" xmlns="http://www.w3.org/2000/svg">
<path d="M17.8281 1.57825C11.8125 1.8595 7.5 2.89075 5.96875 4.39075C5.4375 4.89075 5.34375 5.172 5.34375 6.21887C5.34375 7.21887 5.40625 7.43762 5.8125 7.89075C6.96875 9.15637 10.1562 10.0626 15.1562 10.547C17.0781 10.7345 22.9062 10.7345 24.8281 10.547C28.6562 10.1876 31.125 9.64075 32.875 8.78137C33.2344 8.6095 33.5313 8.46887 33.5313 8.46887C33.5938 8.46887 33.5469 15.672 33.4844 15.922C33.2188 16.8595 30.4844 17.8439 26.5938 18.3907C23.375 18.8439 18.2656 18.922 14.8594 18.5782C10.7187 18.1564 7.32812 17.1564 6.60937 16.1876C6.46875 16.0001 6.45312 15.8595 6.4375 14.547L6.40625 13.1095H5.875H5.34375V23.8439C5.34375 34.1564 5.34375 34.5939 5.48437 34.8751C6.21875 36.5001 10.0312 37.7189 15.9531 38.2345C17.8437 38.4064 24.6875 38.3282 24.8594 38.1407C24.875 38.1251 24.8594 37.8751 24.8438 37.5939L24.7969 37.0626L23.8125 37.1251C22.2344 37.2189 16.7656 37.2032 15.6094 37.0939C11.1875 36.672 7.90625 35.8751 6.875 34.9689C6.40625 34.547 6.40625 34.6407 6.40625 30.7189C6.40625 28.7814 6.42187 27.1876 6.45312 27.1876C6.48437 27.1876 6.6875 27.297 6.90625 27.4376C8.53125 28.422 11.4219 29.1407 15.3594 29.547C16.9531 29.7189 22.7813 29.7345 24.2344 29.5782C28.5 29.1407 31.2969 28.4532 32.9844 27.4689C33.25 27.3126 33.4844 27.1876 33.5 27.1876C33.5156 27.1876 33.5469 28.7814 33.5469 30.7189C33.5469 33.6407 33.5313 34.3126 33.4531 34.5001C33.3594 34.7189 33.0938 34.9376 32.3594 35.3595C32.25 35.422 32.2656 35.4689 32.4531 35.922C32.5781 36.2032 32.6875 36.4064 32.7188 36.4064C32.75 36.4064 32.9375 36.3126 33.1562 36.1876C33.7188 35.8595 34.2344 35.3595 34.4375 34.9532L34.625 34.5782V19.9689C34.625 5.75012 34.625 5.34387 34.4844 5.047C34.4062 4.87512 34.1875 4.59387 34 4.40637C32.5938 3.047 29.125 2.12512 23.875 1.70325C22.9531 1.59387 18.7656 1.53137 17.8281 1.57825ZM24.6562 2.8595C28.4688 3.2345 31.5312 3.95325 32.8906 4.82825C33.4688 5.20325 33.5313 5.32825 33.5313 6.25012V7.01575L33.2812 7.26575C32.5156 8.06262 29.5 8.89075 25.9062 9.28137C19.2969 10.0157 11.3438 9.40637 7.6875 7.87512C7.375 7.7345 6.98437 7.50012 6.79687 7.32825L6.46875 7.03137L6.45312 6.3595C6.40625 5.31262 6.5625 5.06262 7.57812 4.56262C9.29688 3.71887 12.75 3.03137 16.7188 2.76575C18.2031 2.672 23.2188 2.71887 24.6562 2.8595ZM6.85938 17.7032C8.1875 18.5314 10.875 19.2189 14.125 19.6095C16.1094 19.8439 17.2813 19.8907 20 19.8907C22.7188 19.8907 23.8906 19.8282 25.875 19.6095C29.1406 19.2345 31.7969 18.5314 33.1562 17.7032C33.3438 17.5939 33.5156 17.5001 33.5313 17.5001C33.6094 17.5001 33.5625 25.2501 33.5 25.5157C33.2969 26.2657 31.7969 27.0157 29.2969 27.6407C24.0625 28.922 16.0312 28.922 10.7344 27.6407C8.25 27.047 6.71875 26.2814 6.51562 25.5314C6.4375 25.2657 6.40625 17.5001 6.46875 17.5001C6.48438 17.4845 6.65625 17.5782 6.85938 17.7032Z"/>
<path d="M27.7972 33.7188C27.7972 35.2656 27.7816 36.5312 27.7504 36.5312C27.7347 36.5312 27.3285 36.2187 26.8441 35.8437C26.3754 35.4687 25.9379 35.1406 25.891 35.125C25.8129 35.0938 25.5472 35.375 25.1879 35.8594C25.1566 35.9062 25.6722 36.375 26.7191 37.1875C27.5941 37.875 28.3285 38.4375 28.3441 38.4375C28.3597 38.4375 29.0785 37.875 29.9222 37.1875C30.9535 36.3594 31.4535 35.9219 31.4066 35.8594C31.141 35.5 30.7816 35.0938 30.7504 35.0938C30.7191 35.0938 30.2972 35.4219 29.8129 35.8281L28.9066 36.5625L28.891 33.7344L28.8754 30.9062H28.3285H27.7816L27.7972 33.7188Z"/>
</svg>
