<svg width="40" height="40" viewBox="0 0 40 40" xmlns="http://www.w3.org/2000/svg">
<path d="M19.4844 1.6875C19.3437 1.76563 19.1562 1.92187 19.0781 2.0625C18.9062 2.29688 18.9062 2.32812 18.9062 4.76562C18.9062 7.10938 18.9063 7.25 19.0469 7.46875C19.4688 8.15625 20.5 8.15625 20.9219 7.46875C21.0625 7.25 21.0625 7.09375 21.0625 4.76562C21.0625 2.32812 21.0625 2.29688 20.9063 2.0625C20.7031 1.76562 20.3125 1.5625 19.9844 1.5625C19.8594 1.5625 19.625 1.60938 19.4844 1.6875Z" />
<path d="M7.37483 6.6875C6.89045 6.84375 6.5467 7.4375 6.64045 7.98437C6.6717 8.20312 6.96858 8.53125 8.3592 9.9375C9.28108 10.875 10.1248 11.6719 10.2342 11.7344C10.5155 11.875 11.0155 11.8594 11.2967 11.6875C11.7655 11.3906 11.9686 10.7188 11.7186 10.25C11.5623 9.95312 8.34358 6.78125 8.1092 6.6875C7.87483 6.60938 7.6717 6.60938 7.37483 6.6875Z" />
<path d="M31.8597 6.70331C31.641 6.79706 28.4222 9.98456 28.266 10.2502C28.016 10.7189 28.2191 11.3908 28.6878 11.6877C28.9691 11.8596 29.4691 11.8752 29.7503 11.7346C29.8597 11.6721 30.7035 10.8752 31.6097 9.93769C33.0472 8.50019 33.2972 8.21894 33.3285 7.98456C33.5003 7.10956 32.6722 6.39081 31.8597 6.70331Z" />
<path d="M18.5938 10.7034C16.4219 11.0784 14.6875 11.9846 13.1875 13.5627C11.9375 14.8752 11.1563 16.3596 10.7656 18.2034C10.5781 19.0627 10.5781 20.9534 10.7656 21.8127C11.1719 23.7502 11.9844 25.2346 13.375 26.6252C14.7656 28.0159 16.2656 28.8284 18.1875 29.2346C19.0469 29.4221 20.9375 29.4221 21.7969 29.2346C23.7344 28.8284 25.2188 28.0159 26.6094 26.6096C28 25.219 28.8125 23.7346 29.2344 21.7971C29.3281 21.344 29.3594 20.8596 29.3594 19.9846C29.3594 19.1096 29.3281 18.6252 29.2344 18.1721C28.8281 16.2346 28.0156 14.7502 26.625 13.3596C25.25 11.9846 23.7656 11.1721 21.875 10.7659C21.1406 10.6252 19.3281 10.5784 18.5938 10.7034ZM21.875 13.0627C23.0938 13.4221 24.1719 14.0471 25.0625 14.9377C25.7031 15.5784 26.125 16.1877 26.5156 17.0159C27 18.0784 27.1094 18.5627 27.1094 20.0159C27.1094 21.469 27.0156 21.9534 26.5156 23.0159C26.125 23.844 25.7031 24.4534 25.0625 25.094C24.4219 25.7346 23.8125 26.1565 22.9844 26.5471C21.9219 27.0315 21.4375 27.1409 19.9844 27.1409C18.5313 27.1409 18.0469 27.0471 16.9844 26.5471C16.1562 26.1565 15.5469 25.7346 14.9063 25.094C14.0156 24.2034 13.375 23.1252 13.0156 21.8752C12.875 21.3752 12.8437 21.1409 12.8437 20.0315C12.8437 18.9221 12.8594 18.6877 13.0156 18.1877C13.7969 15.5315 15.8594 13.5784 18.5313 12.9846C19.2813 12.7971 21.1719 12.844 21.875 13.0627Z" />
<path d="M2.0625 19.0779C1.40625 19.531 1.40625 20.4685 2.0625 20.9216C2.29688 21.0935 2.32813 21.0935 4.76562 21.0935C7.10938 21.0935 7.25 21.0935 7.46875 20.9529C8.15625 20.531 8.15625 19.4998 7.46875 19.0779C7.25 18.9373 7.09375 18.9373 4.76562 18.9373C2.32813 18.9216 2.29688 18.9216 2.0625 19.0779Z" />
<path d="M32.5312 19.0625C31.8438 19.4844 31.8438 20.5156 32.5312 20.9375C32.75 21.0781 32.9063 21.0781 35.2344 21.0781H37.6875L37.9531 20.9063C38.6094 20.4531 38.6094 19.5312 37.9531 19.0625C37.7187 18.9062 37.6875 18.9062 35.25 18.9062C32.8906 18.9219 32.75 18.9219 32.5312 19.0625Z" />
<path d="M10.2027 28.3123C10.0933 28.3905 9.24955 29.1873 8.3433 30.0936C6.9683 31.4842 6.68705 31.7967 6.6558 32.0155C6.51517 32.8123 7.17142 33.4842 7.98392 33.328C8.2183 33.2967 8.49955 33.0311 9.93705 31.6092C10.8745 30.6873 11.6714 29.8436 11.7339 29.7498C11.8745 29.4686 11.8589 28.9686 11.687 28.6873C11.3745 28.203 10.6714 28.0155 10.2027 28.3123Z" />
<path d="M28.6879 28.3284C28.2348 28.6096 28.016 29.2815 28.2504 29.719C28.2973 29.8127 29.0785 30.6409 30.016 31.5627C31.7973 33.3596 31.9223 33.4534 32.5004 33.344C32.8441 33.2815 33.2816 32.844 33.3441 32.5002C33.4535 31.9221 33.3598 31.8127 31.5629 30.0159C30.641 29.094 29.7973 28.2971 29.7191 28.2502C29.4691 28.1252 28.9691 28.1721 28.6879 28.3284Z" />
<path d="M19.4375 32.1562C19.3125 32.2344 19.1406 32.4062 19.0625 32.5312C18.9219 32.75 18.9219 32.9062 18.9219 35.2344C18.9219 37.6719 18.9219 37.7031 19.0937 37.9375C19.5469 38.5938 20.4687 38.6094 20.9219 37.9375L21.0938 37.6719V35.2187C21.0938 32.8906 21.0938 32.75 20.9531 32.5156C20.75 32.1875 20.4063 32 20.0156 32C19.7969 32.0156 19.5781 32.0781 19.4375 32.1562Z" />
</svg>
