<svg width="40" height="40" viewBox="0 0 40 40" xmlns="http://www.w3.org/2000/svg">
<path d="M15.2031 1.75003C14.5312 1.9844 13.7344 2.53128 13.375 3.00003C13.1875 3.25003 12.7812 4.09378 12.2031 5.50003L11.3125 7.62503L7.4375 7.65628L3.54688 7.68753L3.32812 7.93753C3.125 8.1719 3.125 8.1719 3.125 9.18753C3.125 10.7657 3.14063 10.7813 4.95313 10.7813H6.1875V22.3907C6.1875 34.9375 6.1875 34.5625 6.59375 35.6407C6.98438 36.6875 7.85938 37.7032 8.67188 38.0938C8.875 38.2032 9.26562 38.3125 9.5 38.3594C10.0938 38.4688 30.0156 38.4688 30.5938 38.3594C32.0938 38.0782 33.3906 36.5157 33.75 34.5625C33.8281 34.1094 33.8438 31.8438 33.8594 22.3907V10.7813H35.1719H36.4844L36.7031 10.5625L36.9219 10.3438V9.25003C36.9219 8.64066 36.8906 8.09378 36.8438 8.03128C36.6719 7.70316 36.6094 7.70316 32.5781 7.65628L28.7188 7.62503L27.8281 5.50003C26.8281 3.1094 26.6406 2.7969 25.8281 2.2344C24.8594 1.5469 24.9844 1.56253 20.0469 1.56253H15.7656L15.2031 1.75003ZM24 4.71878C24.1719 4.81253 24.3125 5.06253 24.7812 6.21878C25.0938 6.9844 25.3438 7.62503 25.3281 7.64066C25.3125 7.65628 22.9062 7.65628 19.9844 7.64066L14.6719 7.62503L15.2031 6.32815C15.8125 4.84378 15.8438 4.78128 16.0781 4.68753C16.1719 4.65628 17.9375 4.62503 20.0156 4.62503C23.1406 4.6094 23.8281 4.62503 24 4.71878ZM30.7656 22.4688L30.75 34.1563L30.5781 34.5157C30.4844 34.7032 30.3438 34.9688 30.2656 35.0938L30.1094 35.3125H20.0469H9.98438L9.79688 35.0938C9.6875 34.9688 9.53125 34.6875 9.45312 34.4688C9.29688 34.0469 9.29688 34.0157 9.29688 22.4219V10.7813H20.0312H30.7812L30.7656 22.4688Z" />
<path d="M12.5625 15.6094L12.3438 15.8281V23.0469V30.2656L12.5625 30.4844L12.7813 30.7031H13.875H14.9688L15.1875 30.4844L15.4062 30.2656V23.0469V15.8281L15.1875 15.6094L14.9688 15.3906H13.875H12.7813L12.5625 15.6094Z" />
<path d="M18.7188 15.6094L18.4688 15.8281V23C18.4688 30.7188 18.4532 30.4531 18.8595 30.625C18.9688 30.6719 19.4688 30.7031 20.0782 30.7031H21.1251L21.3438 30.4844L21.5626 30.2656L21.547 23.0156L21.5313 15.75L21.3282 15.5781C21.1251 15.4062 21.0782 15.4063 20.047 15.4063H18.9688L18.7188 15.6094Z" />
<path d="M24.9845 15.5C24.5938 15.7187 24.6095 15.4375 24.6095 23.0312C24.6095 30.6406 24.6095 30.4219 24.9688 30.625C25.047 30.6562 25.5938 30.7031 26.172 30.7031H27.2345L27.4532 30.4844L27.672 30.2656V23.0469V15.8281L27.4532 15.6094L27.2345 15.3906H26.2032C25.4845 15.3906 25.1095 15.4219 24.9845 15.5Z" />
</svg>
