<svg width="40" height="40" viewBox="0 0 40 40" >
<path d="M18.2344 1.60914C13.8906 2.06226 10 3.89039 6.9375 6.95289C4 9.89039 2.26562 13.4529 1.64062 17.7341C1.51563 18.5935 1.51563 21.4216 1.64062 22.281C2.25 26.5623 4 30.1404 6.9375 33.0623C9.85938 35.9841 13.4531 37.7498 17.7188 38.3591C18.5625 38.4841 21.4062 38.4841 22.2656 38.3591C25.7969 37.8591 28.9688 36.5154 31.5781 34.3904C35.2969 31.3904 37.6406 27.1873 38.3438 22.281C38.4688 21.4216 38.4688 18.5935 38.3438 17.7341C37.7344 13.4685 35.9844 9.87476 33.0469 6.95289C30.1875 4.09351 26.7031 2.34351 22.5938 1.71851C21.6875 1.57789 19.1562 1.49976 18.2344 1.60914ZM18.1562 7.59351C19.7656 8.09351 21.0156 9.31226 21.5625 10.8748C21.8281 11.6404 21.875 12.7966 21.7031 13.6248C21.3281 15.3591 19.9844 16.8123 18.2188 17.406C17.4219 17.6716 16.1094 17.6873 15.3125 17.4216C14.375 17.1404 13.8281 16.7966 13.1094 16.0779C12.5781 15.5466 12.3906 15.3123 12.1562 14.8123C11.7812 14.031 11.625 13.3748 11.625 12.4998C11.625 11.6404 11.7812 10.9841 12.1562 10.1873C12.4062 9.70289 12.5938 9.43726 13.1094 8.92164C13.6719 8.35914 13.8594 8.21851 14.4375 7.93726C14.8125 7.74976 15.3594 7.56226 15.625 7.48414C16.3281 7.34351 17.5 7.37476 18.1562 7.59351ZM18.375 18.3435C19.7031 18.6716 20.8125 19.3123 21.7812 20.2966L22.2813 20.7966L22.75 20.6716C23.3906 20.4841 24.9688 20.4998 25.625 20.6716C27.0781 21.0623 28.3594 21.9529 29.1563 23.1404C29.5 23.6248 29.8594 24.4373 30.0312 25.0935C30.25 25.906 30.25 27.2341 30.0312 28.0466C29.0781 31.6404 25.2812 33.5466 21.8594 32.1716C21.2031 31.8904 20.6719 31.5623 20.0625 30.9841C19.4062 30.3748 19.0156 29.8279 18.6562 29.0623L18.4062 28.531H14.0781H9.73438L9.76562 26.1248C9.79688 23.7654 9.79688 23.7185 9.98438 23.0935C10.7969 20.4373 12.9062 18.656 15.7031 18.2029C16.3281 18.1091 17.7031 18.1716 18.375 18.3435Z" />
<path d="M23.5469 21.8749C22.4687 22.0312 21.6562 22.4374 20.8125 23.2812C20.3437 23.7499 20.1719 23.9843 19.9375 24.4843C19.5625 25.2812 19.4688 25.7343 19.4688 26.578C19.4688 27.4218 19.5625 27.8749 19.9375 28.6718C20.1719 29.1718 20.3438 29.3905 20.8594 29.9062C21.5625 30.6093 22.2031 30.9687 23.0625 31.1718C23.8125 31.3437 25.0625 31.2812 25.7188 31.0468C26.4375 30.7655 26.9844 30.4374 27.5156 29.9062C28.0625 29.3437 28.3906 28.8437 28.6562 28.0937C28.8281 27.6249 28.8438 27.4687 28.8438 26.5937C28.8438 25.7187 28.8281 25.5624 28.6562 25.0937C28.375 24.328 28.0469 23.8124 27.4531 23.2187C26.4531 22.203 24.9375 21.6874 23.5469 21.8749ZM23.2188 24.4062C23.6875 24.8749 24.0938 25.2655 24.1406 25.2655C24.1875 25.2655 24.5938 24.8905 25.0469 24.4374L25.875 23.6093L26.4219 24.1562L26.9688 24.703L26.1094 25.5624L25.2656 26.4062L26.1719 27.328L27.0781 28.2499L26.5469 28.7812L26.0156 29.3124L25.0938 28.3905L24.1719 27.4687L23.3125 28.328L22.4531 29.1874L21.9062 28.6405L21.3594 28.0937L22.2187 27.2343L23.0781 26.3749L22.1875 25.4687L21.2656 24.5468L21.7656 24.0468C22.0469 23.7655 22.2969 23.5468 22.3125 23.5468C22.3438 23.5468 22.75 23.9374 23.2188 24.4062Z" />
</svg>
