<svg width="74" height="40" viewBox="0 0 74 40" xmlns="http://www.w3.org/2000/svg">
<path d="M38.2031 20C38.2031 14.5469 38.2031 9.09375 38.2031 3.64062C38.2031 2.71875 38.6406 2.01562 39.4531 1.70312C39.6875 1.60937 39.9688 1.5625 40.2188 1.5625C46.3438 1.54688 52.4687 1.54688 58.5937 1.5625C59.9219 1.5625 61.1094 2.09375 62.0469 3.03125C64.1562 5.10938 66.25 7.20312 68.3281 9.3125C69.2969 10.2812 69.7969 11.5 69.7969 12.875C69.8125 20.7031 69.7969 28.5469 69.7969 36.375C69.7969 37.5938 68.9531 38.4375 67.75 38.4375C58.5781 38.4375 49.4062 38.4375 40.2344 38.4375C39.0313 38.4375 38.1875 37.5938 38.1875 36.3906C38.2031 30.9219 38.2031 25.4688 38.2031 20ZM40.8438 4.20312C40.8438 14.75 40.8438 25.2656 40.8438 35.7969C49.625 35.7969 58.3906 35.7969 67.1562 35.7969C67.1562 28.7656 67.1562 21.7656 67.1562 14.7344C67.0625 14.7344 66.9844 14.7344 66.9062 14.7344C64.1562 14.7344 61.4219 14.7344 58.6719 14.7344C57.4844 14.7344 56.625 13.8906 56.625 12.7031C56.625 9.92188 56.625 7.14062 56.625 4.375C56.625 4.32812 56.625 4.26562 56.6094 4.20312C51.3594 4.20312 46.1094 4.20312 40.8438 4.20312ZM67 12.0938C66.8906 11.75 66.7344 11.4375 66.4844 11.1719C64.3906 9.07812 62.2812 6.96875 60.1875 4.875C59.9375 4.625 59.625 4.46875 59.2812 4.35938C59.2812 6.9375 59.2812 9.5 59.2812 12.0781C61.8594 12.0938 64.4062 12.0938 67 12.0938Z" />
<path d="M35.7969 20C35.7969 14.5469 35.7969 9.09375 35.7969 3.64062C35.7969 2.71875 35.3594 2.01562 34.5469 1.70312C34.3125 1.60937 34.0312 1.5625 33.7812 1.5625C27.6562 1.54688 21.5313 1.54688 15.4063 1.5625C14.0781 1.5625 12.8906 2.09375 11.9531 3.03125C9.84375 5.10938 7.75 7.20312 5.67188 9.3125C4.70313 10.2812 4.20312 11.5 4.20312 12.875C4.1875 20.7031 4.20312 28.5469 4.20312 36.375C4.20312 37.5938 5.04688 38.4375 6.25 38.4375C15.4219 38.4375 24.5938 38.4375 33.7656 38.4375C34.9687 38.4375 35.8125 37.5938 35.8125 36.3906C35.7969 30.9219 35.7969 25.4688 35.7969 20ZM33.1562 4.20312C33.1562 14.75 33.1562 25.2656 33.1562 35.7969C24.375 35.7969 15.6094 35.7969 6.84375 35.7969C6.84375 28.7656 6.84375 21.7656 6.84375 14.7344C6.9375 14.7344 7.01562 14.7344 7.09375 14.7344C9.84375 14.7344 12.5781 14.7344 15.3281 14.7344C16.5156 14.7344 17.375 13.8906 17.375 12.7031C17.375 9.92188 17.375 7.14062 17.375 4.375C17.375 4.32812 17.375 4.26562 17.3906 4.20312C22.6406 4.20312 27.8906 4.20312 33.1562 4.20312ZM7 12.0938C7.10938 11.75 7.26563 11.4375 7.51563 11.1719C9.60938 9.07812 11.7188 6.96875 13.8125 4.875C14.0625 4.625 14.375 4.46875 14.7188 4.35938C14.7188 6.9375 14.7188 9.5 14.7188 12.0781C12.1406 12.0938 9.59375 12.0938 7 12.0938Z" />
</svg>
