<svg width="40" height="40" viewBox="0 0 40 40" xmlns="http://www.w3.org/2000/svg">
<path d="M35.8594 8.9375H4.14062C2.71875 8.9375 1.5625 10.0937 1.5625 11.5156V28.4844C1.5625 29.9063 2.71875 31.0625 4.14062 31.0625H35.8594C37.2812 31.0625 38.4375 29.9063 38.4375 28.4844V11.5156C38.4375 10.1094 37.2812 8.9375 35.8594 8.9375ZM21.8438 12.625H25.5312V16.3125H21.8438V12.625ZM27.375 18.1562V21.8438H23.6875V18.1562H27.375ZM16.3125 12.625H20V16.3125H16.3125V12.625ZM21.8438 18.1562V21.8438H18.1562V18.1562H21.8438ZM10.7812 12.625H14.4688V16.3125H10.7812V12.625ZM16.3125 18.1562V21.8438H12.625V18.1562H16.3125ZM5.25 12.625H8.9375V16.3125H5.25V12.625ZM10.7812 18.1562V21.8438H7.09375V18.1562H10.7812ZM8.9375 27.375H5.25V23.6875H8.9375V27.375ZM29.2188 27.375H10.7812V23.6875H29.2188V27.375ZM34.75 27.375H31.0625V23.6875H34.75V27.375ZM29.2188 21.8438V18.1562H32.9062V21.8438H29.2188ZM34.75 16.3125H27.375V12.625H34.75V16.3125Z" />
</svg>
