<svg width="40" height="40" viewBox="0 0 40 40" xmlns="http://www.w3.org/2000/svg">
<path d="M24.75 34.5H6.75C3.89063 34.5 1.5625 32.1719 1.5625 29.3125C1.5625 26.5938 3.65625 24.3594 6.3125 24.1406C6.28125 23.9375 6.28125 23.7344 6.28125 23.5313C6.28125 20.8906 8.4375 18.7344 11.0781 18.7344C11.6719 18.7344 12.2656 18.8438 12.8125 19.0625C14.1875 17.2969 16.2812 16.2656 18.5469 16.2656C22.5469 16.2656 25.8125 19.5313 25.8125 23.5313C25.8125 23.6094 25.8125 23.6875 25.8125 23.75C28.3125 24.25 30.1719 26.4531 30.1719 29.0625C30.1719 32.0625 27.7344 34.5 24.75 34.5ZM6.75 25.6562C4.73438 25.6562 3.09375 27.2969 3.09375 29.3125C3.09375 31.3281 4.73438 32.9688 6.75 32.9688H24.7344C26.875 32.9688 28.6094 31.2344 28.6094 29.0938C28.6094 27.0312 26.9844 25.3281 24.9375 25.2187L24.0938 25.1719L24.2031 24.3438C24.2344 24.0781 24.2656 23.8125 24.2656 23.5469C24.2656 20.3906 21.7031 17.8125 18.5312 17.8125C16.5625 17.8125 14.7656 18.7969 13.7031 20.4688L13.3125 21.0781L12.6719 20.7188C12.1875 20.4375 11.625 20.2969 11.0625 20.2969C9.26563 20.2969 7.8125 21.75 7.8125 23.5469C7.8125 23.9375 7.875 24.3125 8.01562 24.6719L8.45312 25.8594L7.20312 25.7031C7.04688 25.6719 6.90625 25.6562 6.75 25.6562Z" />
<path d="M29.5003 26.0156C28.9222 26.0156 28.3597 25.9688 27.7972 25.8438C27.4222 25.7656 27.4066 25.7656 27.1253 25.7031C26.8597 25.6406 26.2972 25.5156 24.8128 25.1875L25.1409 23.6875C26.6253 24.0156 27.1878 24.1562 27.4691 24.2188C27.7347 24.2812 27.7347 24.2812 28.0941 24.3438C31.0784 24.9375 33.9378 23.5625 35.5159 21.7031C34.9378 21.7812 34.2347 21.8281 33.4691 21.8438C33.3597 21.8438 33.2347 21.8438 33.1253 21.8438C30.3753 21.8438 28.1409 21.25 26.4691 20.0625C24.6253 18.7656 23.5472 16.7969 23.2659 14.2031C23.0784 12.4688 23.1253 11.0781 23.2659 10.0312C23.2191 10.0937 23.1566 10.1562 23.0941 10.2188C21.7972 11.6719 21.0316 13.2812 20.8128 14.9844C20.7191 15.6875 20.7503 16.4062 20.8909 17.0938L19.3753 17.3906C19.2035 16.5313 19.1722 15.6562 19.2816 14.7812C19.5316 12.7812 20.4691 10.8281 21.9691 9.15625C23.0941 7.89062 24.1566 7.21875 24.2034 7.1875L26.891 5.5L25.3128 8.21875C25.2659 8.3125 24.3753 10.1094 24.7972 14.0469C25.0316 16.1719 25.891 17.7656 27.3597 18.8125C30.9066 21.3125 36.8441 19.9219 36.9066 19.9062L38.4378 19.5469L37.7972 20.9844C37.1097 22.5156 35.7191 23.9375 34.0003 24.875C32.5941 25.625 31.0472 26.0156 29.5003 26.0156Z" />
<path d="M18.7188 13.6719C18.7188 13.5937 18.7031 13.5313 18.6562 13.4844L17.4688 12.3125L17.2031 10.6719C17.1875 10.6094 17.1562 10.5625 17.1094 10.5312C17.0625 10.5 16.9844 10.5 16.9375 10.5312L15.4531 11.2969L13.7969 11.0312C13.7344 11.0156 13.6719 11.0469 13.625 11.0781C13.5781 11.125 13.5625 11.1875 13.5781 11.25L13.8437 12.8906L13.0938 14.375C13.0625 14.4375 13.0625 14.5 13.0938 14.5469C13.125 14.5937 13.1719 14.6406 13.2344 14.6406L14.8906 14.8906L16.0781 16.0781C16.125 16.125 16.1875 16.1406 16.25 16.1406C16.3125 16.125 16.3594 16.0938 16.3906 16.0312L17.1406 14.5312L18.625 13.7812C18.6719 13.7969 18.7188 13.7344 18.7188 13.6719Z" />
<path d="M30.4688 14.3592C30.4688 14.3435 30.4688 14.3435 30.4688 14.3592C30.4531 14.3123 30.4063 14.2967 30.3594 14.281L29.2344 14.1248L28.4219 13.3279C28.3906 13.2967 28.3438 13.281 28.3125 13.2967C28.2813 13.2967 28.2344 13.3279 28.2188 13.3748L27.7188 14.3904L26.7031 14.9217C26.6719 14.9373 26.6406 14.9842 26.625 15.0154C26.625 15.0623 26.6406 15.0935 26.6719 15.1248L27.4844 15.906L27.6719 17.031C27.6719 17.0779 27.7031 17.1092 27.7344 17.1248C27.7656 17.1404 27.8125 17.1404 27.8594 17.1248L28.8594 16.5935L29.9844 16.7498C30.0312 16.7498 30.0781 16.7498 30.0938 16.7185C30.125 16.6873 30.1406 16.6404 30.125 16.6092L29.9219 15.4842L30.4219 14.4685C30.4844 14.4373 30.4844 14.3904 30.4688 14.3592Z" />
</svg>
