<svg width="40" height="40" viewBox="0 0 40 40" xmlns="http://www.w3.org/2000/svg">
<path d="M4.20313 20C4.20313 14.5469 4.20313 9.09375 4.20313 3.64062C4.20313 2.71875 4.64063 2.01562 5.45313 1.70312C5.6875 1.60937 5.96875 1.5625 6.21875 1.5625C12.3438 1.54688 18.4687 1.54688 24.5937 1.5625C25.9219 1.5625 27.1094 2.09375 28.0469 3.03125C30.1562 5.10938 32.25 7.20312 34.3281 9.3125C35.2969 10.2812 35.7969 11.5 35.7969 12.875C35.8125 20.7031 35.7969 28.5469 35.7969 36.375C35.7969 37.5938 34.9531 38.4375 33.75 38.4375C24.5781 38.4375 15.4062 38.4375 6.23438 38.4375C5.03125 38.4375 4.1875 37.5938 4.1875 36.3906C4.20312 30.9219 4.20313 25.4688 4.20313 20ZM6.84375 4.20312C6.84375 14.75 6.84375 25.2656 6.84375 35.7969C15.625 35.7969 24.3906 35.7969 33.1562 35.7969C33.1562 28.7656 33.1562 21.7656 33.1562 14.7344C33.0625 14.7344 32.9844 14.7344 32.9062 14.7344C30.1562 14.7344 27.4219 14.7344 24.6719 14.7344C23.4844 14.7344 22.625 13.8906 22.625 12.7031C22.625 9.92188 22.625 7.14062 22.625 4.375C22.625 4.32812 22.625 4.26562 22.6094 4.20312C17.3594 4.20312 12.1094 4.20312 6.84375 4.20312ZM33 12.0938C32.8906 11.75 32.7344 11.4375 32.4844 11.1719C30.3906 9.07812 28.2812 6.96875 26.1875 4.875C25.9375 4.625 25.625 4.46875 25.2812 4.35938C25.2812 6.9375 25.2812 9.5 25.2812 12.0781C27.8594 12.0938 30.4062 12.0938 33 12.0938Z" />
</svg>
