<?xml version="1.0" encoding="UTF-8"?>
<svg xmlns="http://www.w3.org/2000/svg" viewBox="0 0 750 750" version="1.1" style="shape-rendering:geometricPrecision; text-rendering:geometricPrecision; image-rendering:optimizeQuality; fill-rule:evenodd; clip-rule:evenodd" xmlns:xlink="http://www.w3.org/1999/xlink">
<path  d="M 565.5,170.5 C 570.631,175.13 575.631,179.963 580.5,185C 550.833,214.667 521.167,244.333 491.5,274C 529.427,298.258 561.927,328.425 589,364.5C 592.588,369.487 593.588,374.82 592,380.5C 584.46,393.573 575.46,405.573 565,416.5C 532.693,450.07 495.526,476.903 453.5,497C 393.642,522.296 335.309,519.13 278.5,487.5C 247.18,518.32 216.014,549.32 185,580.5C 180.167,575.667 175.333,570.833 170.5,566C 200.167,536.333 229.833,506.667 259.5,477C 229.008,457.188 201.508,433.688 177,406.5C 171.615,400.116 166.615,393.45 162,386.5C 158.412,381.513 157.412,376.18 159,370.5C 166.54,357.427 175.54,345.427 186,334.5C 218.307,300.93 255.474,274.097 297.5,254C 357.363,228.643 415.696,231.81 472.5,263.5C 503.854,232.812 534.854,201.812 565.5,170.5 Z M 365.5,257.5 C 398.008,256.794 428.675,263.96 457.5,279C 446.333,290.167 435.167,301.333 424,312.5C 400.565,295.645 375.065,291.812 347.5,301C 309.968,317.544 293.135,346.377 297,387.5C 299.065,401.04 304.231,413.206 312.5,424C 300,436.5 287.5,449 275,461.5C 238.697,439.204 207.363,411.204 181,377.5C 180.333,376.167 180.333,374.833 181,373.5C 217.172,326.994 262.338,292.161 316.5,269C 332.51,263.169 348.843,259.336 365.5,257.5 Z M 475.5,289.5 C 512.091,311.581 543.591,339.581 570,373.5C 570.667,374.833 570.667,376.167 570,377.5C 536.156,421.014 494.323,454.514 444.5,478C 393.247,500.188 342.913,498.188 293.5,472C 304.667,460.833 315.833,449.667 327,438.5C 349.361,454.636 373.861,458.803 400.5,451C 435.305,437.902 453.305,412.735 454.5,375.5C 454.855,357.399 449.522,341.232 438.5,327C 451.035,314.632 463.369,302.132 475.5,289.5 Z M 370.5,316.5 C 384.473,315.889 397.139,319.556 408.5,327.5C 381.833,354.833 354.833,381.833 327.5,408.5C 312.426,384.641 313.259,361.308 330,338.5C 340.806,326.017 354.306,318.684 370.5,316.5 Z M 422.5,342.5 C 424.074,342.937 425.241,343.937 426,345.5C 438.28,368.915 436.613,391.248 421,412.5C 398.233,436.395 372.4,440.395 343.5,424.5C 342.479,423.998 342.312,423.332 343,422.5C 369.702,395.965 396.202,369.299 422.5,342.5 Z"/>
</svg>
