<?xml version="1.0" encoding="UTF-8"?>
<svg xmlns="http://www.w3.org/2000/svg" viewBox="0 0 750 750" version="1.1" style="shape-rendering:geometricPrecision; text-rendering:geometricPrecision; image-rendering:optimizeQuality; fill-rule:evenodd; clip-rule:evenodd" xmlns:xlink="http://www.w3.org/1999/xlink">
    <path d="M 371.5,236.5 C 400.049,236.647 427.382,242.48 453.5,254C 507.96,279.462 553.127,316.296 589,364.5C 591.059,367.949 592.559,371.616 593.5,375.5C 591.726,381.714 588.893,387.381 585,392.5C 549.138,437.362 505.305,472.195 453.5,497C 411.981,515.428 369.315,518.761 325.5,507C 285.721,493.954 250.055,473.954 218.5,447C 196.844,429.348 178.01,409.181 162,386.5C 159.941,383.051 158.441,379.384 157.5,375.5C 159.691,368.117 163.191,361.451 168,355.5C 205.892,308.94 252.392,273.774 307.5,250C 328.32,242.338 349.653,237.838 371.5,236.5 Z M 365.5,257.5 C 392.984,256.83 419.317,261.997 444.5,273C 494.3,296.458 536.134,329.958 570,373.5C 570.667,374.833 570.667,376.167 570,377.5C 530.613,428.78 480.447,465.28 419.5,487C 384.625,496.806 350.291,495.14 316.5,482C 262.338,458.839 217.172,424.006 181,377.5C 180.333,376.167 180.333,374.833 181,373.5C 217.172,326.994 262.338,292.161 316.5,269C 332.51,263.169 348.843,259.336 365.5,257.5 Z M 370.5,316.5 C 397.392,316.022 416.892,327.689 429,351.5C 439.148,378.388 433.648,401.555 412.5,421C 387.844,438.998 363.177,438.998 338.5,421C 319.04,403.329 312.873,381.829 320,356.5C 329.45,333.708 346.283,320.375 370.5,316.5 Z"/>
    <path d="M 363.5,296.5 C 402.056,293.188 430.223,308.521 448,342.5C 462.383,381.141 453.883,413.641 422.5,440C 397.259,456.222 370.592,458.889 342.5,448C 306.213,428.59 291.379,398.423 298,357.5C 307.534,323.795 329.367,303.461 363.5,296.5 Z M 370.5,316.5 C 346.283,320.375 329.45,333.708 320,356.5C 312.873,381.829 319.04,403.329 338.5,421C 363.177,438.998 387.844,438.998 412.5,421C 433.648,401.555 439.148,378.388 429,351.5C 416.892,327.689 397.392,316.022 370.5,316.5 Z"/>
</svg>
