<svg width="40" height="40" viewBox="0 0 40 40" xmlns="http://www.w3.org/2000/svg">
<path d="M35.8906 9.82812H28.2656C26.8594 9.82812 25.7188 10.9687 25.7188 12.375C25.7188 13.7812 26.8594 14.9219 28.2656 14.9219H35.8906C37.2969 14.9219 38.4375 13.7812 38.4375 12.375C38.4375 10.9687 37.2969 9.82812 35.8906 9.82812ZM35.8906 17.4531H20.6406C19.2344 17.4531 18.0938 18.5937 18.0938 20C18.0938 21.4062 19.2344 22.5469 20.6406 22.5469H35.8906C37.2969 22.5469 38.4375 21.4062 38.4375 20C38.4375 18.5937 37.2969 17.4531 35.8906 17.4531ZM35.8906 25.0781H20.6406C19.2344 25.0781 18.0938 26.2187 18.0938 27.625C18.0938 29.0312 19.2344 30.1719 20.6406 30.1719H35.8906C37.2969 30.1719 38.4375 29.0312 38.4375 27.625C38.4375 26.2187 37.2969 25.0781 35.8906 25.0781ZM35.8906 32.7187H20.6406C19.2344 32.7187 18.0938 33.8594 18.0938 35.2656C18.0938 36.6719 19.2344 37.8125 20.6406 37.8125H35.8906C37.2969 37.8125 38.4375 36.6719 38.4375 35.2656C38.4375 33.8437 37.2969 32.7187 35.8906 32.7187ZM20.6406 14.9219C20.6406 14.9219 21.0156 15.0312 21.5156 14.5312C22.0156 14.0312 22.0156 13.2187 21.5156 12.7187L12.6875 2.56249C12.4219 2.29687 12.0781 2.18749 11.7188 2.20312C11.375 2.18749 11.0156 2.29687 10.75 2.56249L1.92188 12.7187C1.42188 13.2187 1.42188 14.0312 1.92188 14.5312C2.42188 15.0312 2.84375 14.9219 2.84375 14.9219H10.4688V37.7969H13.0156V14.9219H20.6406ZM20.6406 7.29687H35.8906C37.2969 7.29687 38.4375 6.15624 38.4375 4.74999C38.4375 3.34374 37.2969 2.20312 35.8906 2.20312H20.6406C19.2344 2.20312 18.0938 3.34374 18.0938 4.74999C18.0938 6.15624 19.2344 7.29687 20.6406 7.29687Z" />
</svg>
