<svg width="40" height="40" viewBox="0 0 40 40" xmlns="http://www.w3.org/2000/svg">
<path d="M35.8906 30.1719H28.2656C26.8594 30.1719 25.7188 29.0312 25.7188 27.625C25.7188 26.2188 26.8594 25.0781 28.2656 25.0781H35.8906C37.2969 25.0781 38.4375 26.2188 38.4375 27.625C38.4375 29.0312 37.2969 30.1719 35.8906 30.1719ZM35.8906 22.5469H20.6406C19.2344 22.5469 18.0938 21.4062 18.0938 20C18.0938 18.5938 19.2344 17.4531 20.6406 17.4531H35.8906C37.2969 17.4531 38.4375 18.5938 38.4375 20C38.4375 21.4062 37.2969 22.5469 35.8906 22.5469ZM35.8906 14.9219H20.6406C19.2344 14.9219 18.0938 13.7812 18.0938 12.375C18.0938 10.9688 19.2344 9.82813 20.6406 9.82813H35.8906C37.2969 9.82813 38.4375 10.9688 38.4375 12.375C38.4375 13.7812 37.2969 14.9219 35.8906 14.9219ZM35.8906 7.29688H20.6406C19.2344 7.29688 18.0938 6.15625 18.0938 4.75C18.0938 3.34375 19.2344 2.20312 20.6406 2.20312H35.8906C37.2969 2.20312 38.4375 3.34375 38.4375 4.75C38.4375 6.15625 37.2969 7.29688 35.8906 7.29688ZM20.6406 25.0781C20.6406 25.0781 21.0156 24.9687 21.5156 25.4688C22.0156 25.9688 22.0156 26.7812 21.5156 27.2812L12.6875 37.4375C12.4219 37.7031 12.0625 37.8125 11.7188 37.7969C11.375 37.8125 11.0156 37.7031 10.75 37.4375L1.92188 27.2812C1.42188 26.7812 1.42188 25.9688 1.92188 25.4688C2.42188 24.9687 2.84375 25.0781 2.84375 25.0781H10.4688V2.20312H13.0156V25.0781H20.6406ZM20.6406 32.7031H35.8906C37.2969 32.7031 38.4375 33.8438 38.4375 35.25C38.4375 36.6562 37.2969 37.7969 35.8906 37.7969H20.6406C19.2344 37.7969 18.0938 36.6562 18.0938 35.25C18.0938 33.8438 19.2344 32.7031 20.6406 32.7031Z" />
</svg>
